<?xml version="1.0" standalone="no"?><!DOCTYPE svg PUBLIC "-//W3C//DTD SVG 1.1//EN" "http://www.w3.org/Graphics/SVG/1.1/DTD/svg11.dtd"><svg t="1749884648845" class="icon" viewBox="0 0 1024 1024" version="1.1" xmlns="http://www.w3.org/2000/svg" p-id="4336" xmlns:xlink="http://www.w3.org/1999/xlink" width="200" height="200"><path d="M0 0m225.890154 0l572.219692 0q225.890154 0 225.890154 225.890154l0 572.219692q0 225.890154-225.890154 225.890154l-572.219692 0q-225.890154 0-225.890154-225.890154l0-572.219692q0-225.890154 225.890154-225.890154Z" fill="#F54343" p-id="4337"></path><path d="M798.479935 274.371848c-71.7233-48.111605-170.759189-58.375414-242.470153-27.47296-44.410712 17.159806-95.618731 61.817244-119.526497 120.217331-6.821979 17.172142-10.251473 37.773778-13.656295 58.375414-6.834315 27.485296-6.834315 51.528763-17.073451 72.142735-3.417158 13.717976-13.66863 24.043466-30.742082 34.344284 3.417158 3.429494 6.821979 3.429494 13.66863 3.429494 10.2268 0 23.895431 0 30.729746-3.429494 37.564061-13.742648 47.803197-37.773778 64.888985-65.27141 20.490609-34.331948 54.637512-58.38775 99.035889-54.933584 27.312588 0 40.981218 10.300818 51.232691 13.717975 34.134567 20.613972 47.803197 61.841917 51.220355 85.873047 3.417158 0 3.417158 13.742648 3.417157 17.172142 6.821979 44.657439 0 78.952378-10.251472 116.787837C634.567398 782.714133 491.120797 875.446167 340.852217 837.63538c-61.459491-17.172142-116.10934-54.94592-160.507716-103.032853l-6.821979-6.871324s3.404821 6.871324 3.404821 10.300818c13.66863 17.172142 23.920103 30.91479 37.576398 48.111605 34.146903 34.356621 71.710964 65.259075 112.692182 82.443553l30.729746 10.313155c6.834315 0 13.656294 3.429494 20.502945 3.429494 6.821979 3.429494 13.656294 3.429494 20.478273 3.429494 20.502946 3.429494 37.576397 3.429494 58.067007 3.429493 34.146903 0 68.306143-10.288482 95.618731-20.601636 13.66863-3.429494 27.324924-10.300818 40.981218-17.172142s23.920103-13.742648 34.146903-20.613972c99.035889-72.130399 146.802077-195.764887 136.59995-312.552724-3.404821-20.601636-6.821979-44.657439-13.656294-65.259075a3.34314 3.34314 0 0 1 3.404821 3.44183c6.846651 10.313154 13.680967 20.613972 20.502946 27.485297 3.417158 13.730312 10.239136 30.902454 13.656294 44.632766 10.251473 30.927127 10.251473 51.528763 10.251472 51.528762 0 51.528763-3.429494 99.615695-20.490609 140.818967C757.449372 775.842808 716.517499 824.20114 668.701965 858.607105c-40.981218 30.840772-88.821425 50.70223-146.802077 62.10098h6.834315c37.564061 0 75.128122-3.700893 109.287361-17.443541 27.312588-10.313154 58.05467-24.191502 85.367259-44.805474a288.916356 288.916356 0 0 0 85.379594-96.22321c40.981218-72.118062 54.649849-161.469948 40.981219-250.760153q-10.2268-51.541099-30.729746-92.756707c-6.834315-17.172142-13.66863-34.356621-20.490609-44.657439L801.860084 377.491055l10.251473 10.300818c23.895431 24.043466 40.981218 48.111605 58.05467 82.431217 3.404821 10.300818 6.834315 24.043466 10.239136 34.344284 6.834315 17.184478 10.239136 37.786114 10.239137 51.516426 3.429494 27.47296 0 48.111605 0 68.700905-3.404821 20.601636-6.821979 44.657439-13.643958 68.688568-3.429494 6.871324-6.834315 20.601636-10.251473 30.914791 3.417158-6.871324 3.417158-10.313154 6.834316-13.742649 10.239136-13.730312 27.312588-51.516426 34.146903-78.952377q5.119568-20.613972 10.239136-41.215608c3.417158-13.742648 3.417158-24.043466 6.834315-34.356621 10.251473-103.032853-37.564061-216.37886-126.348476-281.637934z m0 0" fill="#FFFFFF" p-id="4338"></path><path d="M500.311347 542.797595c11.571458-3.700893 20.256219-7.401785 26.041949-14.692544 11.571458-14.680208 14.458154-29.385088 31.81534-44.077632 5.785729-7.401785 11.571458-11.02866 17.357187-14.70488-8.635416-3.700893-17.357187-7.401785-26.029612-7.401785-20.256219-3.700893-31.827677 7.401785-43.399135 25.73354-14.458154 22.044984-23.142916 40.401412-43.386799 44.077632 2.886696 3.700893 8.635416 7.401785 11.559122 7.401786 5.785729 3.700893 17.369523 3.700893 26.041948 3.700892z m0 0" fill="#FFFFFF" p-id="4339"></path><path d="M225.507728 745.914923c71.7233 51.2697 167.342031 61.521173 242.470153 30.766754 44.410712-17.098124 92.201573-61.521173 116.121677-119.662197 6.809643-20.465937 13.656294-37.576397 17.073452-58.091679 3.404821-30.754418 3.404821-54.686858 13.656294-75.189803 6.834315-10.251473 17.073452-23.920103 30.729745-30.766755-3.404821-3.404821-6.821979-3.404821-10.251473-3.404821-13.643958-3.429494-23.883094 0-34.134566 3.404821-34.15924 13.680967-44.410712 37.60107-61.484164 61.53351-23.895431 34.183912-54.637512 61.521173-99.023553 58.091679-30.729746 0-40.981218-10.239136-51.232691-13.643958-37.551725-23.932439-51.220355-64.963003-54.637512-85.465949 0 0-3.417158-13.66863-3.417158-20.515282-6.821979-41.005891 0-78.606961 10.251473-112.790873C386.015444 243.457058 529.462045 151.181467 679.730625 188.745527c64.876649 17.085788 116.10934 54.686858 163.924874 99.134579-10.251473-17.085788-23.907767-30.779091-37.564061-47.864878-30.742082-34.183912-68.306143-64.938331-112.704519-82.024119-10.239136-3.417158-17.073452-6.834315-30.742082-10.251473-6.821979-3.429494-13.643958-3.429494-20.478273-6.846651-6.846651 0-10.251473 0-20.490609-3.417158-20.490609-3.404821-37.564061-3.404821-54.649849-3.404821-37.564061 0-68.306143 10.239136-99.035888 20.502946-10.251473 6.834315-27.324924 13.66863-40.981219 20.502945-10.251473 6.834315-23.907767 13.66863-34.146903 20.515282-99.060561 71.797318-143.446601 194.839664-136.624622 311.060031 3.269122 19.565386 6.55058 39.167781 12.780416 61.681545a1.060923 1.060923 0 0 1 0.493452 0.308408v0.086354a1.233631 1.233631 0 0 1 0.222054 0.46878v0.90055a0.715506 0.715506 0 0 1 0 0.23439v1.233631c-0.308408-1.110268-0.579807-2.380908-0.888214-3.330803H266.464274c-6.821979-10.251473-13.656294-20.502946-17.073452-30.754419-6.821979-13.66863-13.656294-27.337261-17.073451-41.005891-6.834315-30.766755-6.834315-51.2697-6.834315-51.2697-3.404821-51.2697 3.404821-99.122243 20.502945-140.14047 20.478273-54.686858 58.042334-102.5394 105.845531-136.723313 44.410712-34.171576 88.821425-51.2697 150.280916-61.508836 0-3.429494-10.239136 0-10.239136-3.429494-37.576397 3.429494-71.710964 6.846651-105.870204 20.515282-30.729746 6.821979-61.471828 23.920103-85.379594 41.005891-37.564061 27.349597-64.888985 61.533509-88.821425 99.122243-37.551725 71.784982-54.637512 160.655752-40.981218 246.097027 6.834315 37.60107 17.073452 64.950667 30.754418 95.717422 6.821979 13.66863 17.073452 34.171576 23.89543 44.410712 0 0-3.417158-3.429494-6.821979-3.429494L208.483622 636.553544c-23.907767-23.920103-40.981218-47.840206-54.637513-82.024119A166.873252 166.873252 0 0 1 140.14047 516.891347c-3.404821-13.66863-6.821979-34.183912-10.239136-47.852543 0-27.349597 0-47.840206 3.417157-68.355488 0-20.515282 6.821979-44.410712 13.656294-71.784982 0-6.821979 6.834315-20.502946 10.239137-27.337261-6.821979 6.834315-6.821979 6.834315-10.239137 13.668631-10.239136 13.66863-23.895431 51.2697-34.146903 75.189803-3.417158 17.085788-6.834315 27.349597-10.251473 44.410712 0 10.239136-3.404821 23.907767-3.404821 34.171576-10.263809 102.5394 37.551725 215.330273 126.33614 276.863783z m0 0" fill="#FFFFFF" p-id="4340"></path></svg>