<?xml version="1.0" standalone="no"?><!DOCTYPE svg PUBLIC "-//W3C//DTD SVG 1.1//EN" "http://www.w3.org/Graphics/SVG/1.1/DTD/svg11.dtd"><svg t="1749884683123" class="icon" viewBox="0 0 1024 1024" version="1.1" xmlns="http://www.w3.org/2000/svg" p-id="6427" xmlns:xlink="http://www.w3.org/1999/xlink" width="200" height="200"><path d="M470.365 835.888c-194.674 0-352.595-103.424-352.595-231.083 0-127.547 236.43-329.049 326.882-329.049 37.888 0 112.297 28.673 60.304 119.695-3.641 6.372 117.418-52.907 183.635-13.882 66.218 38.914 0 101.601 0 108.545s132.896 6.939 132.896 114.807c-0.123 127.541-156.448 230.966-351.122 230.966z" fill="#DA251C" p-id="6428"></path><path d="M747.411 363.474c-21.962-26.396-67.015-20.255-67.015-20.255-9.443 0.227-16.725-6.601-16.725-15.699v-6.484c0-9.106 7.282-17.633 16.27-19.002 0 0 53.705-13.654 94.779 23.895s23.436 106.157 23.436 106.157c-1.479 9.216-10.352 16.387-19.457 16.387h-14.907c-8.989 0-14.336-7.054-11.721-15.699 0.116-0.123 17.185-42.899-4.66-69.3z" fill="#ED7108" p-id="6429"></path><path d="M902.49 453.018c-1.479 13.654-14.22 24.577-27.874 24.577h-10.579c-13.766 0-23.209-10.923-21.164-24.461 0 0 19.568-82.716-25.714-148.595-45.17-65.879-151.327-54.613-151.327-54.613-13.993 0.227-25.033-10.241-25.033-23.895v-12.175c0-13.766 11.039-25.033 24.577-25.259 0 0 110.59-10.125 185.913 62.239 75.55 72.253 51.2 202.183 51.2 202.183z" fill="#ED7108" p-id="6430"></path><path d="M438.052 467.697c-124.362 17.523-215.838 98.194-204.343 180.343s121.74 134.485 246.101 117.079c124.471-17.523 215.948-98.188 204.343-180.338-11.493-82.156-121.746-134.608-246.101-117.085z" fill="#FFFFFF" p-id="6431"></path><path d="M456.821 742.704c-73.953 14.336-143.819-24.689-155.987-87.381-12.175-62.577 37.888-125.043 111.958-139.379 73.953-14.336 143.819 24.689 155.987 87.381 12.175 62.577-37.888 125.043-111.958 139.379z" fill="#231815" p-id="6432"></path><path d="M377.41 617.888c-22.754 10.579-34.702 33.339-26.622 50.629s33.111 22.754 55.866 12.175 34.702-33.339 26.622-50.629c-8.079-17.412-33.111-22.87-55.866-12.175zM458.983 581.707c-12.513 0-22.754 10.352-22.754 23.098s10.125 23.098 22.754 23.098c12.513 0 22.754-10.352 22.754-23.098s-10.236-23.098-22.754-23.098z" fill="#FFFFFF" p-id="6433"></path></svg>