<?xml version="1.0" standalone="no"?><!DOCTYPE svg PUBLIC "-//W3C//DTD SVG 1.1//EN" "http://www.w3.org/Graphics/SVG/1.1/DTD/svg11.dtd"><svg t="1749731105795" class="icon" viewBox="0 0 1024 1024" version="1.1" xmlns="http://www.w3.org/2000/svg" p-id="15574" xmlns:xlink="http://www.w3.org/1999/xlink" width="200" height="200"><path d="M699.733333 42.666667A281.6 281.6 0 0 1 981.333333 324.266667v375.466666a281.6 281.6 0 0 1-281.6 281.6H324.266667A281.6 281.6 0 0 1 42.666667 699.733333V324.266667A281.6 281.6 0 0 1 324.266667 42.666667h375.466666z" fill="#FF6A00" p-id="15575"></path><path d="M528.170667 336.469333c54.186667 0 98.133333 45.098667 98.133333 100.693334v244.778666a3.84 3.84 0 0 1-3.84 3.925334h-72.618667a3.882667 3.882667 0 0 1-3.84-3.925334v-216.746666c0-30.549333-24.106667-55.296-53.888-55.296H333.653333c-2.133333 0-3.84 1.792-3.84 3.968v268.074666c0 2.133333-1.706667 3.925333-3.84 3.925334H252.202667a3.84 3.84 0 0 1-3.84-3.925334V340.394667a3.882667 3.882667 0 0 1 3.84-3.925334h275.968z m-54.528 136.106667c1.024 0 2.005333 0.426667 2.688 1.152a4.010667 4.010667 0 0 1 1.152 2.773333v205.44c0 1.024-0.426667 2.048-1.152 2.773334a3.84 3.84 0 0 1-2.688 1.152H399.957333a3.84 3.84 0 0 1-3.84-3.925334v-205.44a3.882667 3.882667 0 0 1 3.84-3.925333H473.6z m294.656-136.106667H694.613333c-2.133333 0-3.84 1.792-3.84 3.968v341.504c0 2.176 1.706667 3.925333 3.84 3.925334h73.685334c2.133333 0 3.84-1.749333 3.84-3.925334V340.437333a4.010667 4.010667 0 0 0-1.109334-2.773333l-1.28-0.853333-1.450666-0.298667z" fill="#FFFFFF" p-id="15576"></path></svg>